<svg width="36" height="36" viewBox="0 0 36 36" fill="none" xmlns="http://www.w3.org/2000/svg">
<g clip-path="url(#clip0_1652:8369)">
<path d="M18.7301 35.9969C16.2468 36.0979 14.6765 33.647 15.1932 31.2152L16.5685 24.7426C17.3315 24.7601 18.0308 24.5349 18.5045 24.0876L22.5671 27.6696L22.7959 27.2734C24.1324 24.9579 24.4397 22.9738 23.767 20.7763C27.9338 14.6239 27.4396 8.91385 25.5492 5.61566L25.4407 5.42234L25.2175 5.42407C21.4184 5.43645 16.1928 7.84303 12.9856 14.5477C10.7821 15.0839 9.21796 16.3423 7.91942 18.5922L7.69077 18.9884L12.7703 20.731C12.6311 21.296 12.7252 21.9173 13.0098 22.5005L7.96756 27.0421C6.12063 28.7057 3.21365 28.5707 2.05936 26.3691C0.789741 23.9474 0.0787599 21.2501 0.00617285 18.4772C-0.106018 14.1915 1.3142 10.0063 4.01137 6.67445C6.70855 3.34262 10.5057 1.08284 14.7198 0.301548C18.9338 -0.479742 23.2884 0.268741 27 2.41236C30.7116 4.556 33.5369 7.95407 34.9675 11.9954C36.3982 16.0368 36.3404 20.4561 34.8044 24.4586C33.2685 28.4611 30.3554 31.784 26.5889 33.8297C24.152 35.1533 21.4614 35.8861 18.7301 35.9969Z" fill="url(#paint0_linear_1652:8369)"/>
<path d="M18.7301 35.9969C16.2468 36.0979 14.6765 33.647 15.1932 31.2152L16.5685 24.7426C17.3315 24.7601 18.0308 24.5349 18.5045 24.0876L22.5671 27.6696L22.7959 27.2734C24.1324 24.9579 24.4397 22.9738 23.767 20.7763C27.9338 14.6239 27.4396 8.91385 25.5492 5.61566L25.4407 5.42234L25.2175 5.42407C21.4184 5.43645 16.1928 7.84303 12.9856 14.5477C10.7821 15.0839 9.21796 16.3423 7.91942 18.5922L7.69077 18.9884L12.7703 20.731C12.6311 21.296 12.7252 21.9173 13.0098 22.5005L7.96756 27.0421C6.12063 28.7057 3.21365 28.5707 2.05936 26.3691C0.789741 23.9474 0.0787599 21.2501 0.00617285 18.4772C-0.106018 14.1915 1.3142 10.0063 4.01137 6.67445C6.70855 3.34262 10.5057 1.08284 14.7198 0.301548C18.9338 -0.479742 23.2884 0.268741 27 2.41236C30.7116 4.556 33.5369 7.95407 34.9675 11.9954C36.3982 16.0368 36.3404 20.4561 34.8044 24.4586C33.2685 28.4611 30.3554 31.784 26.5889 33.8297C24.152 35.1533 21.4614 35.8861 18.7301 35.9969Z" fill="url(#paint1_linear_1652:8369)" fill-opacity="0.5"/>
<path d="M21.3952 15.7907C22.7126 15.4932 23.5615 14.1746 23.2649 12.8552C22.9675 11.5373 21.6515 10.6876 20.3327 10.9843C19.0151 11.2818 18.1655 12.602 18.463 13.9199C18.7595 15.2392 20.0778 16.0883 21.3952 15.7907Z" fill="url(#paint2_linear_1652:8369)"/>
<path d="M21.3952 15.7907C22.7126 15.4932 23.5615 14.1746 23.2649 12.8552C22.9675 11.5373 21.6515 10.6876 20.3327 10.9843C19.0151 11.2818 18.1655 12.602 18.463 13.9199C18.7595 15.2392 20.0778 16.0883 21.3952 15.7907Z" fill="url(#paint3_linear_1652:8369)" fill-opacity="0.5"/>
</g>
<defs>
<linearGradient id="paint0_linear_1652:8369" x1="-2.25" y1="39.9506" x2="70.8766" y2="-38.261" gradientUnits="userSpaceOnUse">
<stop offset="0.0882099" stop-color="#F4BB28"/>
<stop offset="0.514303" stop-color="#BD2ECB"/>
<stop offset="1" stop-color="#63AAFC"/>
</linearGradient>
<linearGradient id="paint1_linear_1652:8369" x1="32" y1="-1.03479" x2="2.8153" y2="38.2793" gradientUnits="userSpaceOnUse">
<stop stop-color="#EE2AFF"/>
<stop offset="1" stop-color="#FF9559"/>
</linearGradient>
<linearGradient id="paint2_linear_1652:8369" x1="-2.24989" y1="39.9506" x2="70.8768" y2="-38.2608" gradientUnits="userSpaceOnUse">
<stop offset="0.0882099" stop-color="#F4BB28"/>
<stop offset="0.514303" stop-color="#BD2ECB"/>
<stop offset="1" stop-color="#63AAFC"/>
</linearGradient>
<linearGradient id="paint3_linear_1652:8369" x1="32.0001" y1="-1.03483" x2="2.81529" y2="38.2792" gradientUnits="userSpaceOnUse">
<stop stop-color="#EE2AFF"/>
<stop offset="1" stop-color="#FF9559"/>
</linearGradient>
<clipPath id="clip0_1652:8369">
<rect width="36" height="36" fill="white"/>
</clipPath>
</defs>
</svg>
