<svg xmlns="http://www.w3.org/2000/svg" xmlns:xlink="http://www.w3.org/1999/xlink" viewBox="0 0 212 35.99"><defs><style>.cls-1{fill:#fff;}.cls-2{fill:url(#未命名的渐变_3);}.cls-3,.cls-5,.cls-6{fill-opacity:0.5;}.cls-3{fill:url(#未命名的渐变_4);}.cls-4{fill:url(#未命名的渐变_3-2);}.cls-5{fill:url(#未命名的渐变_4-2);}.cls-6{fill:#65528d;}</style><linearGradient id="未命名的渐变_3" x1="-566.39" y1="230.8" x2="-493.28" y2="309.01" gradientTransform="matrix(1, 0, 0, -1, 564, 270.61)" gradientUnits="userSpaceOnUse"><stop offset="0.09" stop-color="#f4bb28"/><stop offset="0.51" stop-color="#bd2ecb"/><stop offset="1" stop-color="#63aafc"/></linearGradient><linearGradient id="未命名的渐变_4" x1="-531.92" y1="271.58" x2="-561.09" y2="232.27" gradientTransform="matrix(1, 0, 0, -1, 564, 270.61)" gradientUnits="userSpaceOnUse"><stop offset="0" stop-color="#ee2aff"/><stop offset="1" stop-color="#ff9559"/></linearGradient><linearGradient id="未命名的渐变_3-2" x1="-567.16" y1="231.52" x2="-494.06" y2="309.73" xlink:href="#未命名的渐变_3"/><linearGradient id="未命名的渐变_4-2" x1="-532.28" y1="271.85" x2="-561.45" y2="232.54" xlink:href="#未命名的渐变_4"/></defs><title>资源 2</title><g id="图层_2" data-name="图层 2"><g id="图层_1-2" data-name="图层 1"><path class="cls-1" d="M49.33,20.62h5.81V24H44.74V20.74L50.31,14H44.79V10.61H55v3.26Z"/><path class="cls-1" d="M63.49,24.19a7.44,7.44,0,0,1-3.55-.84A6.2,6.2,0,0,1,57.47,21a7.15,7.15,0,0,1-.89-3.65,7,7,0,0,1,.91-3.62A6.13,6.13,0,0,1,60,11.26a7.92,7.92,0,0,1,7.1,0,6.13,6.13,0,0,1,2.5,2.42,7.13,7.13,0,0,1,.91,3.62A7,7,0,0,1,69.56,21,6.2,6.2,0,0,1,67,23.35,7.44,7.44,0,0,1,63.49,24.19Zm0-3.55a2.65,2.65,0,0,0,2-.86,3.42,3.42,0,0,0,.84-2.48,3.48,3.48,0,0,0-.81-2.47,2.71,2.71,0,0,0-4,0,3.48,3.48,0,0,0-.8,2.47,3.63,3.63,0,0,0,.77,2.48A2.59,2.59,0,0,0,63.49,20.64Z"/><path class="cls-1" d="M78.77,24.19a7.47,7.47,0,0,1-3.55-.84A6.26,6.26,0,0,1,72.75,21a7.26,7.26,0,0,1-.89-3.65,7,7,0,0,1,.91-3.62,6.13,6.13,0,0,1,2.5-2.42,7.92,7.92,0,0,1,7.1,0,6.13,6.13,0,0,1,2.5,2.42,7,7,0,0,1,.91,3.62A7,7,0,0,1,84.84,21a6.08,6.08,0,0,1-2.52,2.4A7.44,7.44,0,0,1,78.77,24.19Zm0-3.55a2.63,2.63,0,0,0,2-.86,3.42,3.42,0,0,0,.84-2.48,3.48,3.48,0,0,0-.81-2.47,2.71,2.71,0,0,0-4,0A3.48,3.48,0,0,0,76,17.3a3.63,3.63,0,0,0,.76,2.48A2.59,2.59,0,0,0,78.77,20.64Z"/><path class="cls-1" d="M105,10.46A5.24,5.24,0,0,1,109,12a5.67,5.67,0,0,1,1.49,4.2V24h-4.08V16.73a2.69,2.69,0,0,0-.69-2,2.45,2.45,0,0,0-1.87-.72,2.5,2.5,0,0,0-1.9.72,2.72,2.72,0,0,0-.67,2V24H97.2V16.73a2.69,2.69,0,0,0-.7-2A2.43,2.43,0,0,0,94.63,14a2.53,2.53,0,0,0-1.9.72,2.72,2.72,0,0,0-.67,2V24H88V10.61h4.1v1.68A4.33,4.33,0,0,1,93.69,11,5,5,0,0,1,96,10.46a5.49,5.49,0,0,1,2.69.65A4.63,4.63,0,0,1,100.53,13a5.39,5.39,0,0,1,1.9-1.8A5.15,5.15,0,0,1,105,10.46Z"/><path class="cls-1" d="M118.81,24.19a7.68,7.68,0,0,1-3.12-.6A5.38,5.38,0,0,1,113.53,22a4.41,4.41,0,0,1-.89-2.35h4.06a1.56,1.56,0,0,0,.65,1.13,2.32,2.32,0,0,0,1.41.43,2,2,0,0,0,1.18-.29.93.93,0,0,0,.43-.79.87.87,0,0,0-.6-.84,11.88,11.88,0,0,0-1.94-.63,19.17,19.17,0,0,1-2.4-.69,4.4,4.4,0,0,1-1.66-1.18,3.26,3.26,0,0,1-.7-2.18,3.65,3.65,0,0,1,.63-2.09A4.31,4.31,0,0,1,115.57,11a7.22,7.22,0,0,1,3-.55,5.85,5.85,0,0,1,4,1.24A4.83,4.83,0,0,1,124.16,15h-3.79a1.6,1.6,0,0,0-.62-1.11,2.11,2.11,0,0,0-1.35-.41,1.82,1.82,0,0,0-1.1.29.85.85,0,0,0-.38.75.91.91,0,0,0,.59.86,11.13,11.13,0,0,0,1.92.58,18.85,18.85,0,0,1,2.43.76,3.94,3.94,0,0,1,1.63,1.2,3.35,3.35,0,0,1,.75,2.21,3.5,3.5,0,0,1-.68,2.11,4.26,4.26,0,0,1-1.89,1.44A7.05,7.05,0,0,1,118.81,24.19Z"/><path class="cls-1" d="M146,10.61,142.35,24h-4.54l-2.11-8.69L133.51,24H129l-3.65-13.39h4.11l1.89,9.57,2.26-9.57H138l2.28,9.53,1.88-9.53Z"/><path class="cls-1" d="M146.72,17.28a8.11,8.11,0,0,1,.77-3.62,5.87,5.87,0,0,1,2.13-2.4,5.56,5.56,0,0,1,3-.84,5.16,5.16,0,0,1,2.48.57,4.25,4.25,0,0,1,1.65,1.51V10.61h4.1V24h-4.1V22.1a4.43,4.43,0,0,1-1.68,1.52,5.12,5.12,0,0,1-2.47.57,5.52,5.52,0,0,1-3-.84,6,6,0,0,1-2.13-2.42A8.3,8.3,0,0,1,146.72,17.28Zm10,0a3.34,3.34,0,0,0-.86-2.42,2.75,2.75,0,0,0-2.07-.89,2.8,2.8,0,0,0-2.08.89,3.31,3.31,0,0,0-.84,2.4,3.49,3.49,0,0,0,.84,2.45,2.8,2.8,0,0,0,2.08.89,2.75,2.75,0,0,0,2.07-.89A3.35,3.35,0,0,0,156.75,17.3Z"/><path class="cls-1" d="M167.93,12.5A4.55,4.55,0,0,1,169.58,11a5.16,5.16,0,0,1,2.48-.57,5.56,5.56,0,0,1,3,.84,5.76,5.76,0,0,1,2.11,2.4,7.85,7.85,0,0,1,.79,3.62,8,8,0,0,1-.79,3.65,5.88,5.88,0,0,1-2.11,2.42,5.56,5.56,0,0,1-3,.84,5.24,5.24,0,0,1-2.48-.57,4.59,4.59,0,0,1-1.65-1.49v8.25h-4.11V10.61h4.11Zm5.85,4.78a3.24,3.24,0,0,0-.86-2.4,2.77,2.77,0,0,0-2.09-.89,2.84,2.84,0,0,0-2.09.89,3.38,3.38,0,0,0-.84,2.42,3.39,3.39,0,0,0,.84,2.43,2.9,2.9,0,0,0,4.18,0A3.41,3.41,0,0,0,173.78,17.28Z"/><path class="cls-2" d="M18.73,36c-2.48.1-4.05-2.35-3.54-4.78l1.38-6.48a2.67,2.67,0,0,0,1.93-.65l4.07,3.58.23-.4a7.67,7.67,0,0,0,1-6.49c4.16-6.15,3.67-11.86,1.78-15.16l-.11-.19h-.22c-3.8,0-9,2.42-12.23,9.12a7.72,7.72,0,0,0-5.07,4.05L7.69,19l5.08,1.74A2.64,2.64,0,0,0,13,22.49L8,27c-1.85,1.67-4.76,1.53-5.91-.67a18,18,0,1,1,24.53,7.46A18.19,18.19,0,0,1,18.73,36Z"/><path class="cls-3" d="M18.73,36c-2.48.1-4.05-2.35-3.54-4.78l1.38-6.48a2.67,2.67,0,0,0,1.93-.65l4.07,3.58.23-.4a7.67,7.67,0,0,0,1-6.49c4.16-6.15,3.67-11.86,1.78-15.16l-.11-.19h-.22c-3.8,0-9,2.42-12.23,9.12a7.72,7.72,0,0,0-5.07,4.05L7.69,19l5.08,1.74A2.64,2.64,0,0,0,13,22.49L8,27c-1.85,1.67-4.76,1.53-5.91-.67a18,18,0,1,1,24.53,7.46A18.19,18.19,0,0,1,18.73,36Z"/><path class="cls-4" d="M21.4,15.79a2.46,2.46,0,1,0-2.94-1.87A2.47,2.47,0,0,0,21.4,15.79Z"/><path class="cls-5" d="M21.4,15.79a2.46,2.46,0,1,0-2.94-1.87A2.47,2.47,0,0,0,21.4,15.79Z"/><path class="cls-6" d="M194,0h8a10,10,0,0,1,10,10h0a10,10,0,0,1-10,10h-8a10,10,0,0,1-10-10h0A10,10,0,0,1,194,0Z"/><path class="cls-1" d="M194,13.82l2.38-6.49h1.36l-3,7.67h-1.48l-3-7.67h1.37Z"/><path class="cls-1" d="M198.61,14q1.78-1.43,2.79-2.34a11.87,11.87,0,0,0,1.69-1.92,3.43,3.43,0,0,0,.7-2,2.11,2.11,0,0,0-.45-1.43,1.73,1.73,0,0,0-1.41-.53,1.86,1.86,0,0,0-1.48.6A2.46,2.46,0,0,0,199.88,8h-1.23a3.41,3.41,0,0,1,.95-2.42,3.64,3.64,0,0,1,4.6-.06,2.88,2.88,0,0,1,.85,2.2,4.16,4.16,0,0,1-.7,2.27,10,10,0,0,1-1.57,1.93c-.58.55-1.34,1.2-2.25,1.93h4.82v1.07h-6.74Z"/></g></g></svg>